<svg version="1.1" id="Layer_1" xmlns="http://www.w3.org/2000/svg" xmlns:xlink="http://www.w3.org/1999/xlink" x="0px" y="0px"
	 width="100%" viewBox="0 0 1000 1000" enable-background="new 0 0 1000 1000" xml:space="preserve">
<path fill="#000000" opacity="1.000000" stroke="none" 
	d="
M661.000000,1001.000000 
	C440.666656,1001.000000 220.833328,1001.000000 1.000000,1001.000000 
	C1.000000,667.666687 1.000000,334.333344 1.000000,1.000000 
	C334.333344,1.000000 667.666687,1.000000 1001.000000,1.000000 
	C1001.000000,334.333344 1001.000000,667.666687 1001.000000,1001.000000 
	C887.833313,1001.000000 774.666687,1001.000000 661.000000,1001.000000 
M640.111023,748.506470 
	C649.915161,748.059448 659.721558,747.656311 669.523010,747.157471 
	C703.099243,745.448486 736.666321,743.656555 769.884583,737.988220 
	C793.259399,733.999695 812.877869,723.606934 827.676086,704.717224 
	C838.654663,690.703247 843.809814,674.362305 847.034729,657.209045 
	C855.646484,611.402954 858.128357,565.016907 858.577332,518.594666 
	C858.905273,484.674683 857.372681,450.704956 855.675659,416.807129 
	C854.303284,389.394928 851.197388,362.088257 844.955688,335.259827 
	C835.984192,296.697662 812.200439,272.620361 773.391052,265.060608 
	C752.715027,261.033081 731.573120,258.377625 710.535828,257.417450 
	C649.862915,254.648254 589.143433,251.687088 528.428833,251.369492 
	C462.692841,251.025589 396.931519,253.209885 331.201385,255.021912 
	C298.106750,255.934250 265.056946,258.398254 232.328186,263.979889 
	C209.134018,267.935516 189.612350,278.108551 174.773392,296.730347 
	C163.444092,310.947845 158.210358,327.591248 154.925674,345.083405 
	C146.323486,390.893188 143.887192,437.281189 143.422562,483.702576 
	C143.086441,517.285461 144.645660,550.917114 146.297989,584.480835 
	C147.656052,612.067200 150.774811,639.535583 157.007782,666.539978 
	C165.910034,705.109009 189.640106,729.027466 228.393127,736.953186 
	C244.969421,740.343323 261.922485,742.771423 278.805756,743.620056 
	C336.301147,746.510010 393.826416,749.065125 451.370636,750.631958 
	C487.655579,751.620056 523.997192,750.836182 560.308777,750.434143 
	C586.598022,750.143188 612.879822,749.174194 640.111023,748.506470 
z"/>
<path fill="#FFFFFF" opacity="1.000000" stroke="none" 
	d="
M639.637939,748.506958 
	C612.879822,749.174194 586.598022,750.143188 560.308777,750.434143 
	C523.997192,750.836182 487.655579,751.620056 451.370636,750.631958 
	C393.826416,749.065125 336.301147,746.510010 278.805756,743.620056 
	C261.922485,742.771423 244.969421,740.343323 228.393127,736.953186 
	C189.640106,729.027466 165.910034,705.109009 157.007782,666.539978 
	C150.774811,639.535583 147.656052,612.067200 146.297989,584.480835 
	C144.645660,550.917114 143.086441,517.285461 143.422562,483.702576 
	C143.887192,437.281189 146.323486,390.893188 154.925674,345.083405 
	C158.210358,327.591248 163.444092,310.947845 174.773392,296.730347 
	C189.612350,278.108551 209.134018,267.935516 232.328186,263.979889 
	C265.056946,258.398254 298.106750,255.934250 331.201385,255.021912 
	C396.931519,253.209885 462.692841,251.025589 528.428833,251.369492 
	C589.143433,251.687088 649.862915,254.648254 710.535828,257.417450 
	C731.573120,258.377625 752.715027,261.033081 773.391052,265.060608 
	C812.200439,272.620361 835.984192,296.697662 844.955688,335.259827 
	C851.197388,362.088257 854.303284,389.394928 855.675659,416.807129 
	C857.372681,450.704956 858.905273,484.674683 858.577332,518.594666 
	C858.128357,565.016907 855.646484,611.402954 847.034729,657.209045 
	C843.809814,674.362305 838.654663,690.703247 827.676086,704.717224 
	C812.877869,723.606934 793.259399,733.999695 769.884583,737.988220 
	C736.666321,743.656555 703.099243,745.448486 669.523010,747.157471 
	C659.721558,747.656311 649.915161,748.059448 639.637939,748.506958 
M586.369446,517.870667 
	C595.789185,512.381775 605.208923,506.892944 615.359680,500.978119 
	C553.016357,464.827850 491.348389,429.069244 429.318848,393.100952 
	C429.318848,465.235596 429.318848,536.816406 429.318848,608.936768 
	C481.760864,578.495667 533.729736,548.329163 586.369446,517.870667 
z"/>
<path fill="#010101" opacity="1.000000" stroke="none" 
	d="
M586.034058,518.016724 
	C533.729736,548.329163 481.760864,578.495667 429.318848,608.936768 
	C429.318848,536.816406 429.318848,465.235596 429.318848,393.100952 
	C491.348389,429.069244 553.016357,464.827850 615.359680,500.978119 
	C605.208923,506.892944 595.789185,512.381775 586.034058,518.016724 
z"/>
</svg>